{
    "accessors": {
        "accessor_21": {
            "bufferView": "bufferView_29",
            "byteOffset": 0,
            "byteStride": 2,
            "componentType": 5123,
            "count": 6,
            "max": [
                2
            ],
            "min": [
                0
            ],
            "type": "SCALAR"
        },
        "accessor_23": {
            "bufferView": "bufferView_30",
            "byteOffset": 0,
            "byteStride": 12,
            "componentType": 5126,
            "count": 4,
            "max": [
                0.5,
                0.5,
                0
            ],
            "min": [
                -0.5,
                -0.5,
                0
            ],
            "type": "VEC3"
        },
        "accessor_25": {
            "bufferView": "bufferView_30",
            "byteOffset": 48,
            "byteStride": 12,
            "componentType": 5126,
            "count": 4,
            "max": [
                0,
                0,
                1
            ],
            "min": [
                0,
                0,
                1
            ],
            "type": "VEC3"
        },
        "accessor_27": {
            "bufferView": "bufferView_30",
            "byteOffset": 96,
            "byteStride": 8,
            "componentType": 5126,
            "count": 4,
            "max": [
                1,
                1
            ],
            "min": [
                0,
                0
            ],
            "type": "VEC2"
        }
    },
    "animations": {},
    "asset": {
        "generator": "collada2gltf@6779c094d694e951beeb1012d03d4faa1edb0ddf",
        "premultipliedAlpha": true,
        "profile": {
            "api": "WebGL",
            "version": "1.0.2"
        },
        "version": "1.0.1"
    },
    "bufferViews": {
        "bufferView_29": {
            "buffer": "flat1",
            "byteLength": 12,
            "byteOffset": 0,
            "target": 34963
        },
        "bufferView_30": {
            "buffer": "flat1",
            "byteLength": 128,
            "byteOffset": 12,
            "target": 34962
        }
    },
    "buffers": {
        "flat1": {
            "byteLength": 140,
            "type": "arraybuffer",
            "uri": "flat1.bin"
        }
    },
    "images": {
        "flat1_jpg": {
            "name": "flat1_jpg",
            "uri": "flat1.jpg"
        }
    },
    "materials": {
        "_1_-_Default": {
            "name": "_1_-_Default",
            "technique": "technique0",
            "values": {
                "ambient": "texture_flat1_jpg",
                "diffuse": "texture_flat1_jpg",
                "emission": [
                    1,
                    1,
                    1,
                    1
                ],
                "shininess": 10,
                "specular": [
                    1,
                    1,
                    1,
                    1
                ],
                "transparency": 0.99
            }
        }
    },
    "meshes": {
        "geom-cloud": {
            "name": "cloud",
            "primitives": [
                {
                    "attributes": {
                        "NORMAL": "accessor_25",
                        "POSITION": "accessor_23",
                        "TEXCOORD_0": "accessor_27"
                    },
                    "indices": "accessor_21",
                    "material": "_1_-_Default",
                    "mode": 4
                }
            ]
        }
    },
    "nodes": {
        "node-cloud": {
            "children": [],
            "meshes": [
                "geom-cloud"
            ],
            "name": "cloud"
        },
        "node_0": {
            "children": [],
            "name": "EnvironmentAmbientLight"
        },
        "node_2": {
            "children": [
                "node_0",
                "node-cloud"
            ],
            "matrix": [
                1,
                0,
                0,
                0,
                0,
                0,
                -1,
                0,
                0,
                1,
                0,
                0,
                0,
                0,
                0,
                1
            ],
            "name": "Y_UP_Transform"
        }
    },
    "programs": {
        "program_0": {
            "attributes": [
                "a_normal",
                "a_position",
                "a_texcoord0"
            ],
            "fragmentShader": "flat10FS",
            "vertexShader": "flat10VS"
        }
    },
    "samplers": {
        "sampler_0": {
            "magFilter": 9729,
            "minFilter": 9729,
            "wrapS": 10497,
            "wrapT": 10497
        }
    },
    "scene": "defaultScene",
    "scenes": {
        "defaultScene": {
            "nodes": [
                "node_2"
            ]
        }
    },
    "shaders": {
        "flat10FS": {
            "type": 35632,
            "uri": "cloudFS.glsl"
        },
        "flat10VS": {
            "type": 35633,
            "uri": "baseVS.glsl"
        }
    },
    "skins": {},
    "techniques": {
        "technique0": {
            "attributes": {
                "a_normal": "normal",
                "a_position": "position",
                "a_texcoord0": "texcoord0"
            },
            "parameters": {
                "ambient": {
                    "type": 35678
                },
                "diffuse": {
                    "type": 35678
                },
                "emission": {
                    "type": 35666
                },
                "modelViewMatrix": {
                    "semantic": "MODELVIEW",
                    "type": 35676
                },
                "normal": {
                    "semantic": "NORMAL",
                    "type": 35665
                },
                "normalMatrix": {
                    "semantic": "MODELVIEWINVERSETRANSPOSE",
                    "type": 35675
                },
                "position": {
                    "semantic": "POSITION",
                    "type": 35665
                },
                "projectionMatrix": {
                    "semantic": "PROJECTION",
                    "type": 35676
                },
                "shininess": {
                    "type": 5126
                },
                "specular": {
                    "type": 35666
                },
                "texcoord0": {
                    "semantic": "TEXCOORD_0",
                    "type": 35664
                },
                "transparency": {
                    "type": 5126
                }
            },
            "program": "program_0",
            "states": {
                "enable": [
                    2929,
                    3042
                ],
                "functions": {
                    "blendEquationSeparate": [
                        32774,
                        32774
                    ],
                    "blendFuncSeparate": [
                        1,
                        771,
                        1,
                        771
                    ],
                    "depthMask": [
                        false
                    ]
                }
            },
            "uniforms": {
                "u_ambient": "ambient",
                "u_diffuse": "diffuse",
                "u_emission": "emission",
                "u_modelViewMatrix": "modelViewMatrix",
                "u_normalMatrix": "normalMatrix",
                "u_projectionMatrix": "projectionMatrix",
                "u_shininess": "shininess",
                "u_specular": "specular",
                "u_transparency": "transparency"
            }
        }
    },
    "textures": {
        "texture_flat1_jpg": {
            "format": 6408,
            "internalFormat": 6408,
            "sampler": "sampler_0",
            "source": "flat1_jpg",
            "target": 3553,
            "type": 5121
        }
    }
}